<mxfile host="app.diagrams.net" modified="2024-06-13T06:24:31.011Z" agent="Mozilla/5.0 (Macintosh; Intel Mac OS X 10_15_7) AppleWebKit/537.36 (KHTML, like Gecko) Chrome/125.0.0.0 Safari/537.36" version="24.5.3" etag="_r3g3v9Wf5D9dUps7l6w" type="github">
  <diagram name="第 1 页" id="z-MxMNlkLeZe6uUerPjs">
    <mxGraphModel>
      <root>
        <mxCell id="0" />
        <mxCell id="1" parent="0" />
      </root>
    </mxGraphModel>
  </diagram>
</mxfile>
